HIERARCHY
ROOT Hips
{
	OFFSET 0.00 0.00 0.00
	CHANNELS 6 Xposition Yposition Zposition Xrotation Yrotation Zrotation
	JOINT RightUpLeg
	{
		OFFSET -3.76699 0.00000 0.00000
		CHANNELS 3 Xrotation Yrotation Zrotation
		JOINT RightLeg
		{
			OFFSET 0.00000 -18.01768 0.00000
			CHANNELS 3 Xrotation Yrotation Zrotation
			JOINT RightFoot
			{
				OFFSET 0.00000 -16.88108 0.00000
				CHANNELS 3 Xrotation Yrotation Zrotation
				JOINT RightToeBase
				{
					OFFSET 0.00000 -1.49359 5.57418
					CHANNELS 3 Xrotation Yrotation Zrotation
					End Site
					{
						OFFSET 0.00000 0.00000 2.95275
					}
				}
			}
		}
	}
	JOINT LeftUpLeg
	{
		OFFSET 3.76699 0.00000 0.00000
		CHANNELS 3 Xrotation Yrotation Zrotation
		JOINT LeftLeg
		{
			OFFSET 0.00000 -18.01768 0.00000
			CHANNELS 3 Xrotation Yrotation Zrotation
			JOINT LeftFoot
			{
				OFFSET 0.00000 -16.88108 0.00000
				CHANNELS 3 Xrotation Yrotation Zrotation
				JOINT LeftToeBase
				{
					OFFSET 0.00000 -1.49359 5.57418
					CHANNELS 3 Xrotation Yrotation Zrotation
					End Site
					{
						OFFSET 0.00000 0.00000 2.95275
					}
				}
			}
		}
	}
	JOINT Spine
	{
		OFFSET 0.00000 7.77970 0.00000
		CHANNELS 3 Xrotation Yrotation Zrotation
		JOINT RightShoulder
		{
			OFFSET 0.00000 10.94176 0.00000
			CHANNELS 3 Xrotation Yrotation Zrotation
			JOINT RightArm
			{
				OFFSET -7.70894 0.00000 0.00000
				CHANNELS 3 Xrotation Yrotation Zrotation
				JOINT RightForeArm
				{
					OFFSET -11.52135 0.00000 0.00000
					CHANNELS 3 Yrotation Zrotation Xrotation
					JOINT RightHand
					{
						OFFSET -10.17590 0.00000 0.00000
						CHANNELS 3 Xrotation Yrotation Zrotation
						End Site
						{
							OFFSET -3.93700 0.00000 0.00000
						}
						JOINT RightHandThumb1
						{
							OFFSET 0.00000 0.00000 0.00000
							CHANNELS 3 Xrotation Zrotation Yrotation
							End Site
							{
								OFFSET 0.00000 0.00000 3.93700
							}
						}
					}
				}
			}
		}
		JOINT LeftShoulder
		{
			OFFSET 0.00000 10.94176 0.00000
			CHANNELS 3 Xrotation Yrotation Zrotation
			JOINT LeftArm
			{
				OFFSET 7.70894 0.00000 0.00000
				CHANNELS 3 Xrotation Yrotation Zrotation
				JOINT LeftForeArm
				{
					OFFSET 11.52135 0.00000 0.00000
					CHANNELS 3 Yrotation Zrotation Xrotation
					JOINT LeftHand
					{
						OFFSET 10.17590 0.00000 0.00000
						CHANNELS 3 Xrotation Yrotation Zrotation
						End Site
						{
							OFFSET 3.93700 0.00000 0.00000
						}
						JOINT LeftHandThumb1
						{
							OFFSET 0.00000 0.00000 0.00000
							CHANNELS 3 Xrotation Zrotation Yrotation
							End Site
							{
								OFFSET 0.00000 0.00000 3.93700
							}
						}
					}
				}
			}
		}
		JOINT Head
		{
			OFFSET 0.00000 16.64604 0.00000
			CHANNELS 3 Xrotation Yrotation Zrotation
			End Site
			{
				OFFSET 0.00000 4.52755 0.00000
			}
		}
	}
}
MOTION
Frames: 9
Frame Time: 0.008333
 1.5461 37.0551 2.8456 -0.6511 -7.7151 1.6124 8.9229 -3.3204 -2.2771 -5.5319 -0.0000 0.0000 -9.0466 -18.6040 8.2107 15.5050 -0.0000 0.0000 8.6298 6.1537 1.7498 -2.7356 0.0000 -0.0000 -5.4815 20.3942 -12.3265 8.0307 0.0000 0.0000 2.8277 -2.8287 -7.3484 14.9113 -3.9242 -34.3663 1.4850 9.1212 10.1241 103.2093 0.0000 -95.3029 0.8247 2.2383 -20.2329 32.8623 0.0000 -24.3270 37.2662 10.0886 -8.7901 -33.6097 -22.2610 -67.6693 -27.5609 -0.0000 21.8693 2.2075 14.9487 -8.4990 33.1476 -0.0000 26.2537 4.5888 -39.5066 -2.2621
 1.5333 37.0555 2.8502 -0.7956 -7.6480 1.6118 9.1071 -3.3001 -2.2696 -5.5712 -0.0000 -0.0000 -9.0540 -18.6873 8.1754 15.4118 0.0000 -0.0000 8.7541 6.1733 1.7605 -2.7099 -0.0000 0.0000 -5.4580 20.3112 -12.3606 8.0082 -0.0000 0.0000 2.9353 -2.6636 -7.5530 15.9563 -3.9825 -34.6029 6.2812 11.1127 9.0683 101.9158 0.0000 -95.9548 0.6976 1.8356 -20.8139 32.8623 0.0000 -24.3270 37.2049 9.9990 -9.0172 -33.5603 -22.6956 -67.1732 -27.3345 -0.0000 21.8882 2.2429 14.8097 -8.7115 33.1476 -0.0000 26.2537 4.8244 -39.8528 -2.2387
 1.5199 37.0545 2.8522 -0.9275 -7.5429 1.6090 9.2656 -3.3332 -2.2512 -5.5852 -0.0000 0.0000 -9.0834 -18.7444 8.1610 15.5265 0.0000 -0.0000 8.8569 6.1271 1.7840 -2.6805 0.0000 0.0000 -5.4502 20.2606 -12.3968 8.0137 0.0000 -0.0000 3.0758 -2.5056 -7.7649 17.1711 -4.1021 -34.7530 10.5448 12.8813 8.1249 100.6765 0.0000 -96.2319 0.5879 1.5001 -21.4047 32.8623 0.0000 -24.3270 37.1326 9.9731 -9.2934 -33.5357 -23.2325 -66.6611 -27.1340 -0.0000 21.8076 2.2490 14.6504 -8.8263 33.1476 -0.0000 26.2537 4.9414 -40.2217 -2.1792
 1.5085 37.0533 2.8526 -1.0565 -7.4161 1.6143 9.4202 -3.3879 -2.2392 -5.5998 -0.0000 0.0000 -9.1202 -18.8031 8.1608 15.5656 0.0000 -0.0000 8.9485 6.0901 1.7977 -2.6508 0.0000 -0.0000 -5.4429 20.1910 -12.4291 7.9948 0.0000 -0.0000 3.2661 -2.1999 -8.0042 18.3174 -4.2298 -34.7658 14.4172 14.4019 7.3946 99.4603 0.0000 -96.6503 0.3701 0.9233 -21.8418 32.8623 0.0000 -24.3270 36.8321 9.8623 -9.3971 -33.3584 -23.6787 -66.2124 -26.9439 -0.0000 21.8757 2.2618 14.4712 -8.9815 33.1476 -0.0000 26.2537 5.0206 -40.6554 -2.0387
 1.4949 37.0508 2.8555 -1.2006 -7.2852 1.6154 9.5974 -3.4514 -2.2188 -5.6195 -0.0000 -0.0000 -9.1466 -18.8604 8.1226 15.5358 0.0000 -0.0000 9.0651 6.0405 1.8171 -2.6305 0.0000 -0.0000 -5.4458 20.1193 -12.4259 8.0091 0.0000 -0.0000 3.5143 -1.8669 -8.2333 19.6800 -4.6979 -34.5328 17.3781 15.9123 6.6610 98.1836 0.0000 -97.0768 0.2369 0.5918 -21.8209 32.8623 0.0000 -24.3270 36.7620 9.7835 -9.5969 -33.4383 -24.3254 -65.7423 -26.7303 -0.0000 21.8646 2.2913 14.4231 -9.1258 33.1476 -0.0000 26.2537 4.9415 -41.1027 -1.9860
 1.4826 37.0468 2.8554 -1.3557 -7.1272 1.6128 9.7772 -3.5463 -2.1900 -5.6288 0.0000 0.0000 -9.2153 -18.9097 8.0380 15.5625 0.0000 0.0000 9.1804 5.9601 1.8414 -2.6048 -0.0000 0.0000 -5.4700 20.0536 -12.4102 8.0471 -0.0000 0.0000 3.8342 -1.4968 -8.4505 20.9661 -5.1711 -34.2084 19.8358 17.2354 6.1820 96.9249 -0.0000 -97.4946 0.0664 0.1704 -21.2801 32.8623 0.0000 -24.3270 36.6168 9.6795 -9.7394 -33.4689 -24.9437 -65.2954 -26.5843 -0.0000 21.8483 2.3222 14.4512 -9.2299 33.1476 -0.0000 26.2537 4.7091 -41.4889 -1.9621
 1.4681 37.0424 2.8522 -1.5026 -6.9493 1.5993 9.9488 -3.6581 -2.1431 -5.6375 0.0000 0.0000 -9.2725 -18.9550 7.9367 15.3988 0.0000 -0.0000 9.2813 5.8382 1.8868 -2.5807 -0.0000 -0.0000 -5.4957 20.0111 -12.3789 8.0276 0.0000 -0.0000 4.2039 -1.1059 -8.6662 21.9992 -5.5734 -33.7309 21.8950 18.3749 5.9318 95.7555 -0.0000 -97.8207 -0.1519 -0.4066 -20.4817 32.8623 0.0000 -24.3270 36.4145 9.6082 -9.8367 -33.4832 -25.5606 -64.9066 -26.4960 -0.0000 21.9626 2.3208 14.4582 -9.2200 33.1476 -0.0000 26.2537 4.3748 -41.9376 -1.8697
 1.4551 37.0371 2.8513 -1.6598 -6.7660 1.5817 10.1315 -3.8023 -2.0939 -5.6457 -0.0000 -0.0000 -9.3312 -18.9689 7.9022 15.5089 0.0000 -0.0000 9.3961 5.7098 1.9353 -2.5549 -0.0000 0.0000 -5.5432 19.9639 -12.3581 8.0349 -0.0000 -0.0000 4.6063 -0.7326 -8.8443 22.9009 -5.9221 -33.1392 23.5775 19.3191 5.7565 94.8547 -0.0000 -98.1976 -0.2403 -0.6512 -20.2568 32.8623 0.0000 -24.3270 36.1661 9.5487 -9.9321 -33.4400 -26.1238 -64.5392 -26.4599 -0.0000 21.9262 2.3113 14.3193 -9.2686 33.1476 -0.0000 26.2537 3.8951 -42.3121 -1.9862
 1.4408 37.0332 2.8458 -1.7786 -6.5625 1.5487 10.2799 -3.9125 -2.0171 -5.6648 0.0000 0.0000 -9.3516 -19.0383 7.8270 15.3852 -0.0000 0.0000 9.4554 5.5848 2.0116 -2.5234 0.0000 0.0000 -5.5797 19.8931 -12.3473 8.0371 -0.0000 -0.0000 4.9808 -0.3631 -8.9882 23.6688 -6.1825 -32.4994 24.9534 20.0524 5.7783 94.2996 -0.0000 -98.3496 -0.2075 -0.5556 -20.4807 32.8623 0.0000 -24.3270 35.9970 9.4222 -9.9676 -33.4264 -26.5392 -64.2188 -26.5564 -0.0000 22.0701 2.2730 14.2439 -9.1640 33.1476 -0.0000 26.2537 3.3865 -42.6675 -2.1194
